{
	"asset":{
		"generator":"Khronos glTF Blender I/O v4.4.55",
		"version":"2.0"
	},
	"scene":0,
	"scenes":[
		{
			"name":"Scene",
			"nodes":[
				0
			]
		}
	],
	"nodes":[
		{
			"mesh":0,
			"name":"plant_b"
		}
	],
	"materials":[
		{
			"doubleSided":true,
			"name":"material_colors",
			"pbrMetallicRoughness":{
				"baseColorTexture":{
					"index":0
				},
				"metallicFactor":0
			}
		}
	],
	"meshes":[
		{
			"name":"Cube.010",
			"primitives":[
				{
					"attributes":{
						"POSITION":0,
						"NORMAL":1,
						"TEXCOORD_0":2
					},
					"indices":3,
					"material":0
				}
			]
		}
	],
	"textures":[
		{
			"sampler":0,
			"source":0
		}
	],
	"images":[
		{
			"mimeType":"image/png",
			"name":"spr_colors_texture",
			"uri":"spr_colors_texture.png"
		}
	],
	"accessors":[
		{
			"bufferView":0,
			"componentType":5126,
			"count":456,
			"max":[
				0.39903920888900757,
				0.8020150065422058,
				0.35810136795043945
			],
			"min":[
				-0.3467922508716583,
				-2.9802322387695312e-08,
				-0.30899518728256226
			],
			"type":"VEC3"
		},
		{
			"bufferView":1,
			"componentType":5126,
			"count":456,
			"type":"VEC3"
		},
		{
			"bufferView":2,
			"componentType":5126,
			"count":456,
			"type":"VEC2"
		},
		{
			"bufferView":3,
			"componentType":5123,
			"count":684,
			"type":"SCALAR"
		}
	],
	"bufferViews":[
		{
			"buffer":0,
			"byteLength":5472,
			"byteOffset":0,
			"target":34962
		},
		{
			"buffer":0,
			"byteLength":5472,
			"byteOffset":5472,
			"target":34962
		},
		{
			"buffer":0,
			"byteLength":3648,
			"byteOffset":10944,
			"target":34962
		},
		{
			"buffer":0,
			"byteLength":1368,
			"byteOffset":14592,
			"target":34963
		}
	],
	"samplers":[
		{
			"magFilter":9728,
			"minFilter":9984
		}
	],
	"buffers":[
		{
			"byteLength":15960,
			"uri":"plant_b.bin"
		}
	]
}
