{
	"asset":{
		"generator":"Khronos glTF Blender I/O v4.4.55",
		"version":"2.0"
	},
	"scene":0,
	"scenes":[
		{
			"name":"Scene",
			"nodes":[
				0
			]
		}
	],
	"nodes":[
		{
			"mesh":0,
			"name":"map_chunked.051"
		}
	],
	"meshes":[
		{
			"name":"Plane.056",
			"primitives":[
				{
					"attributes":{
						"POSITION":0,
						"NORMAL":1,
						"TEXCOORD_0":2
					},
					"indices":3
				}
			]
		}
	],
	"accessors":[
		{
			"bufferView":0,
			"componentType":5126,
			"count":3049,
			"max":[
				-32,
				1.0037569999694824,
				0
			],
			"min":[
				-64,
				-7.153103351593018,
				-32
			],
			"type":"VEC3"
		},
		{
			"bufferView":1,
			"componentType":5126,
			"count":3049,
			"type":"VEC3"
		},
		{
			"bufferView":2,
			"componentType":5126,
			"count":3049,
			"type":"VEC2"
		},
		{
			"bufferView":3,
			"componentType":5123,
			"count":6534,
			"type":"SCALAR"
		}
	],
	"bufferViews":[
		{
			"buffer":0,
			"byteLength":36588,
			"byteOffset":0,
			"target":34962
		},
		{
			"buffer":0,
			"byteLength":36588,
			"byteOffset":36588,
			"target":34962
		},
		{
			"buffer":0,
			"byteLength":24392,
			"byteOffset":73176,
			"target":34962
		},
		{
			"buffer":0,
			"byteLength":13068,
			"byteOffset":97568,
			"target":34963
		}
	],
	"buffers":[
		{
			"byteLength":110636,
			"uri":"map_chunked_051.bin"
		}
	]
}
