{
	"asset":{
		"generator":"Khronos glTF Blender I/O v4.4.55",
		"version":"2.0"
	},
	"scene":0,
	"scenes":[
		{
			"name":"Scene",
			"nodes":[
				0
			]
		}
	],
	"nodes":[
		{
			"mesh":0,
			"name":"map_chunked.008"
		}
	],
	"meshes":[
		{
			"name":"Plane.013",
			"primitives":[
				{
					"attributes":{
						"POSITION":0,
						"NORMAL":1,
						"TEXCOORD_0":2
					},
					"indices":3
				}
			]
		}
	],
	"accessors":[
		{
			"bufferView":0,
			"componentType":5126,
			"count":3360,
			"max":[
				-96,
				9.511484146118164,
				32
			],
			"min":[
				-128,
				-30.117809295654297,
				0
			],
			"type":"VEC3"
		},
		{
			"bufferView":1,
			"componentType":5126,
			"count":3360,
			"type":"VEC3"
		},
		{
			"bufferView":2,
			"componentType":5126,
			"count":3360,
			"type":"VEC2"
		},
		{
			"bufferView":3,
			"componentType":5123,
			"count":6534,
			"type":"SCALAR"
		}
	],
	"bufferViews":[
		{
			"buffer":0,
			"byteLength":40320,
			"byteOffset":0,
			"target":34962
		},
		{
			"buffer":0,
			"byteLength":40320,
			"byteOffset":40320,
			"target":34962
		},
		{
			"buffer":0,
			"byteLength":26880,
			"byteOffset":80640,
			"target":34962
		},
		{
			"buffer":0,
			"byteLength":13068,
			"byteOffset":107520,
			"target":34963
		}
	],
	"buffers":[
		{
			"byteLength":120588,
			"uri":"map_chunked_008.bin"
		}
	]
}
