{
	"asset":{
		"generator":"Khronos glTF Blender I/O v4.4.55",
		"version":"2.0"
	},
	"scene":0,
	"scenes":[
		{
			"name":"Scene",
			"nodes":[
				0
			]
		}
	],
	"nodes":[
		{
			"mesh":0,
			"name":"map_chunked.013"
		}
	],
	"meshes":[
		{
			"name":"Plane.018",
			"primitives":[
				{
					"attributes":{
						"POSITION":0,
						"NORMAL":1,
						"TEXCOORD_0":2
					},
					"indices":3
				}
			]
		}
	],
	"accessors":[
		{
			"bufferView":0,
			"componentType":5126,
			"count":2298,
			"max":[
				128,
				9.511484146118164,
				32
			],
			"min":[
				96,
				-6.400158405303955,
				0
			],
			"type":"VEC3"
		},
		{
			"bufferView":1,
			"componentType":5126,
			"count":2298,
			"type":"VEC3"
		},
		{
			"bufferView":2,
			"componentType":5126,
			"count":2298,
			"type":"VEC2"
		},
		{
			"bufferView":3,
			"componentType":5123,
			"count":6336,
			"type":"SCALAR"
		}
	],
	"bufferViews":[
		{
			"buffer":0,
			"byteLength":27576,
			"byteOffset":0,
			"target":34962
		},
		{
			"buffer":0,
			"byteLength":27576,
			"byteOffset":27576,
			"target":34962
		},
		{
			"buffer":0,
			"byteLength":18384,
			"byteOffset":55152,
			"target":34962
		},
		{
			"buffer":0,
			"byteLength":12672,
			"byteOffset":73536,
			"target":34963
		}
	],
	"buffers":[
		{
			"byteLength":86208,
			"uri":"map_chunked_013.bin"
		}
	]
}
