{
	"asset":{
		"generator":"Khronos glTF Blender I/O v4.4.55",
		"version":"2.0"
	},
	"scene":0,
	"scenes":[
		{
			"name":"Scene",
			"nodes":[
				0
			]
		}
	],
	"nodes":[
		{
			"mesh":0,
			"name":"map_chunked.047"
		}
	],
	"meshes":[
		{
			"name":"Plane.052",
			"primitives":[
				{
					"attributes":{
						"POSITION":0,
						"NORMAL":1,
						"TEXCOORD_0":2
					},
					"indices":3
				}
			]
		}
	],
	"accessors":[
		{
			"bufferView":0,
			"componentType":5126,
			"count":2910,
			"max":[
				96,
				1.0037569999694824,
				0
			],
			"min":[
				64,
				-14.431537628173828,
				-32
			],
			"type":"VEC3"
		},
		{
			"bufferView":1,
			"componentType":5126,
			"count":2910,
			"type":"VEC3"
		},
		{
			"bufferView":2,
			"componentType":5126,
			"count":2910,
			"type":"VEC2"
		},
		{
			"bufferView":3,
			"componentType":5123,
			"count":6534,
			"type":"SCALAR"
		}
	],
	"bufferViews":[
		{
			"buffer":0,
			"byteLength":34920,
			"byteOffset":0,
			"target":34962
		},
		{
			"buffer":0,
			"byteLength":34920,
			"byteOffset":34920,
			"target":34962
		},
		{
			"buffer":0,
			"byteLength":23280,
			"byteOffset":69840,
			"target":34962
		},
		{
			"buffer":0,
			"byteLength":13068,
			"byteOffset":93120,
			"target":34963
		}
	],
	"buffers":[
		{
			"byteLength":106188,
			"uri":"map_chunked_047.bin"
		}
	]
}
