{
	"asset":{
		"generator":"Khronos glTF Blender I/O v4.4.55",
		"version":"2.0"
	},
	"scene":0,
	"scenes":[
		{
			"name":"Scene",
			"nodes":[
				0
			]
		}
	],
	"nodes":[
		{
			"mesh":0,
			"name":"map_chunked.015"
		}
	],
	"meshes":[
		{
			"name":"Plane.020",
			"primitives":[
				{
					"attributes":{
						"POSITION":0,
						"NORMAL":1,
						"TEXCOORD_0":2
					},
					"indices":3
				}
			]
		}
	],
	"accessors":[
		{
			"bufferView":0,
			"componentType":5126,
			"count":2406,
			"max":[
				128,
				9.511484146118164,
				-32
			],
			"min":[
				96,
				-12.047222137451172,
				-64
			],
			"type":"VEC3"
		},
		{
			"bufferView":1,
			"componentType":5126,
			"count":2406,
			"type":"VEC3"
		},
		{
			"bufferView":2,
			"componentType":5126,
			"count":2406,
			"type":"VEC2"
		},
		{
			"bufferView":3,
			"componentType":5123,
			"count":6336,
			"type":"SCALAR"
		}
	],
	"bufferViews":[
		{
			"buffer":0,
			"byteLength":28872,
			"byteOffset":0,
			"target":34962
		},
		{
			"buffer":0,
			"byteLength":28872,
			"byteOffset":28872,
			"target":34962
		},
		{
			"buffer":0,
			"byteLength":19248,
			"byteOffset":57744,
			"target":34962
		},
		{
			"buffer":0,
			"byteLength":12672,
			"byteOffset":76992,
			"target":34963
		}
	],
	"buffers":[
		{
			"byteLength":89664,
			"uri":"map_chunked_015.bin"
		}
	]
}
