{
	"asset":{
		"generator":"Khronos glTF Blender I/O v4.4.55",
		"version":"2.0"
	},
	"scene":0,
	"scenes":[
		{
			"name":"Scene",
			"nodes":[
				0
			]
		}
	],
	"nodes":[
		{
			"mesh":0,
			"name":"map_chunked.063"
		}
	],
	"meshes":[
		{
			"name":"Plane.068",
			"primitives":[
				{
					"attributes":{
						"POSITION":0,
						"NORMAL":1,
						"TEXCOORD_0":2
					},
					"indices":3
				}
			]
		}
	],
	"accessors":[
		{
			"bufferView":0,
			"componentType":5126,
			"count":3303,
			"max":[
				-32,
				1.0037569999694824,
				-64
			],
			"min":[
				-64,
				-11.545269012451172,
				-96
			],
			"type":"VEC3"
		},
		{
			"bufferView":1,
			"componentType":5126,
			"count":3303,
			"type":"VEC3"
		},
		{
			"bufferView":2,
			"componentType":5126,
			"count":3303,
			"type":"VEC2"
		},
		{
			"bufferView":3,
			"componentType":5123,
			"count":6534,
			"type":"SCALAR"
		}
	],
	"bufferViews":[
		{
			"buffer":0,
			"byteLength":39636,
			"byteOffset":0,
			"target":34962
		},
		{
			"buffer":0,
			"byteLength":39636,
			"byteOffset":39636,
			"target":34962
		},
		{
			"buffer":0,
			"byteLength":26424,
			"byteOffset":79272,
			"target":34962
		},
		{
			"buffer":0,
			"byteLength":13068,
			"byteOffset":105696,
			"target":34963
		}
	],
	"buffers":[
		{
			"byteLength":118764,
			"uri":"map_chunked_063.bin"
		}
	]
}
