{
	"asset":{
		"generator":"Khronos glTF Blender I/O v4.4.55",
		"version":"2.0"
	},
	"scene":0,
	"scenes":[
		{
			"name":"Scene",
			"nodes":[
				0
			]
		}
	],
	"nodes":[
		{
			"mesh":0,
			"name":"map_chunked.036"
		}
	],
	"meshes":[
		{
			"name":"Plane.041",
			"primitives":[
				{
					"attributes":{
						"POSITION":0,
						"NORMAL":1,
						"TEXCOORD_0":2
					},
					"indices":3
				}
			]
		}
	],
	"accessors":[
		{
			"bufferView":0,
			"componentType":5126,
			"count":3050,
			"max":[
				64,
				1.0037569999694824,
				64
			],
			"min":[
				32,
				-12.423686981201172,
				32
			],
			"type":"VEC3"
		},
		{
			"bufferView":1,
			"componentType":5126,
			"count":3050,
			"type":"VEC3"
		},
		{
			"bufferView":2,
			"componentType":5126,
			"count":3050,
			"type":"VEC2"
		},
		{
			"bufferView":3,
			"componentType":5123,
			"count":6534,
			"type":"SCALAR"
		}
	],
	"bufferViews":[
		{
			"buffer":0,
			"byteLength":36600,
			"byteOffset":0,
			"target":34962
		},
		{
			"buffer":0,
			"byteLength":36600,
			"byteOffset":36600,
			"target":34962
		},
		{
			"buffer":0,
			"byteLength":24400,
			"byteOffset":73200,
			"target":34962
		},
		{
			"buffer":0,
			"byteLength":13068,
			"byteOffset":97600,
			"target":34963
		}
	],
	"buffers":[
		{
			"byteLength":110668,
			"uri":"map_chunked_036.bin"
		}
	]
}
