{
	"asset":{
		"generator":"Khronos glTF Blender I/O v4.4.55",
		"version":"2.0"
	},
	"scene":0,
	"scenes":[
		{
			"name":"Scene",
			"nodes":[
				0
			]
		}
	],
	"nodes":[
		{
			"mesh":0,
			"name":"map_chunked.057"
		}
	],
	"meshes":[
		{
			"name":"Plane.062",
			"primitives":[
				{
					"attributes":{
						"POSITION":0,
						"NORMAL":1,
						"TEXCOORD_0":2
					},
					"indices":3
				}
			]
		}
	],
	"accessors":[
		{
			"bufferView":0,
			"componentType":5126,
			"count":3250,
			"max":[
				-32,
				1.0037569999694824,
				-32
			],
			"min":[
				-64,
				-10.541332244873047,
				-64
			],
			"type":"VEC3"
		},
		{
			"bufferView":1,
			"componentType":5126,
			"count":3250,
			"type":"VEC3"
		},
		{
			"bufferView":2,
			"componentType":5126,
			"count":3250,
			"type":"VEC2"
		},
		{
			"bufferView":3,
			"componentType":5123,
			"count":6534,
			"type":"SCALAR"
		}
	],
	"bufferViews":[
		{
			"buffer":0,
			"byteLength":39000,
			"byteOffset":0,
			"target":34962
		},
		{
			"buffer":0,
			"byteLength":39000,
			"byteOffset":39000,
			"target":34962
		},
		{
			"buffer":0,
			"byteLength":26000,
			"byteOffset":78000,
			"target":34962
		},
		{
			"buffer":0,
			"byteLength":13068,
			"byteOffset":104000,
			"target":34963
		}
	],
	"buffers":[
		{
			"byteLength":117068,
			"uri":"map_chunked_057.bin"
		}
	]
}
