{
	"asset":{
		"generator":"Khronos glTF Blender I/O v4.4.55",
		"version":"2.0"
	},
	"scene":0,
	"scenes":[
		{
			"name":"Scene",
			"nodes":[
				0
			]
		}
	],
	"nodes":[
		{
			"mesh":0,
			"name":"map_chunked.012"
		}
	],
	"materials":[
		{
			"doubleSided":true,
			"name":"map_material",
			"pbrMetallicRoughness":{
				"baseColorTexture":{
					"index":0
				},
				"metallicFactor":0,
				"roughnessFactor":0.5
			}
		}
	],
	"meshes":[
		{
			"name":"Plane.017",
			"primitives":[
				{
					"attributes":{
						"POSITION":0,
						"NORMAL":1,
						"TEXCOORD_0":2
					},
					"indices":3,
					"material":0
				}
			]
		}
	],
	"textures":[
		{
			"sampler":0,
			"source":0
		}
	],
	"images":[
		{
			"mimeType":"image/png",
			"name":"spr_terrain_texture",
			"uri":"spr_terrain_texture.png"
		}
	],
	"accessors":[
		{
			"bufferView":0,
			"componentType":5126,
			"count":4224,
			"max":[
				128,
				9.511484146118164,
				64
			],
			"min":[
				96,
				-0.3766293525695801,
				32
			],
			"type":"VEC3"
		},
		{
			"bufferView":1,
			"componentType":5126,
			"count":4224,
			"type":"VEC3"
		},
		{
			"bufferView":2,
			"componentType":5126,
			"count":4224,
			"type":"VEC2"
		},
		{
			"bufferView":3,
			"componentType":5123,
			"count":6336,
			"type":"SCALAR"
		}
	],
	"bufferViews":[
		{
			"buffer":0,
			"byteLength":50688,
			"byteOffset":0,
			"target":34962
		},
		{
			"buffer":0,
			"byteLength":50688,
			"byteOffset":50688,
			"target":34962
		},
		{
			"buffer":0,
			"byteLength":33792,
			"byteOffset":101376,
			"target":34962
		},
		{
			"buffer":0,
			"byteLength":12672,
			"byteOffset":135168,
			"target":34963
		}
	],
	"samplers":[
		{
			"magFilter":9728,
			"minFilter":9984
		}
	],
	"buffers":[
		{
			"byteLength":147840,
			"uri":"map_chunked_012.bin"
		}
	]
}
