{
	"asset":{
		"generator":"Khronos glTF Blender I/O v4.4.55",
		"version":"2.0"
	},
	"scene":0,
	"scenes":[
		{
			"name":"Scene",
			"nodes":[
				0
			]
		}
	],
	"nodes":[
		{
			"mesh":0,
			"name":"map_chunked.021"
		}
	],
	"meshes":[
		{
			"name":"Plane.026",
			"primitives":[
				{
					"attributes":{
						"POSITION":0,
						"NORMAL":1,
						"TEXCOORD_0":2
					},
					"indices":3
				}
			]
		}
	],
	"accessors":[
		{
			"bufferView":0,
			"componentType":5126,
			"count":1242,
			"max":[
				64,
				9.511484146118164,
				128
			],
			"min":[
				32,
				1.0037569999694824,
				96
			],
			"type":"VEC3"
		},
		{
			"bufferView":1,
			"componentType":5126,
			"count":1242,
			"type":"VEC3"
		},
		{
			"bufferView":2,
			"componentType":5126,
			"count":1242,
			"type":"VEC2"
		},
		{
			"bufferView":3,
			"componentType":5123,
			"count":6534,
			"type":"SCALAR"
		}
	],
	"bufferViews":[
		{
			"buffer":0,
			"byteLength":14904,
			"byteOffset":0,
			"target":34962
		},
		{
			"buffer":0,
			"byteLength":14904,
			"byteOffset":14904,
			"target":34962
		},
		{
			"buffer":0,
			"byteLength":9936,
			"byteOffset":29808,
			"target":34962
		},
		{
			"buffer":0,
			"byteLength":13068,
			"byteOffset":39744,
			"target":34963
		}
	],
	"buffers":[
		{
			"byteLength":52812,
			"uri":"map_chunked_021.bin"
		}
	]
}
