{
	"asset":{
		"generator":"Khronos glTF Blender I/O v4.4.55",
		"version":"2.0"
	},
	"scene":0,
	"scenes":[
		{
			"name":"Scene",
			"nodes":[
				0
			]
		}
	],
	"nodes":[
		{
			"mesh":0,
			"name":"map_chunked.045"
		}
	],
	"meshes":[
		{
			"name":"Plane.050",
			"primitives":[
				{
					"attributes":{
						"POSITION":0,
						"NORMAL":1,
						"TEXCOORD_0":2
					},
					"indices":3
				}
			]
		}
	],
	"accessors":[
		{
			"bufferView":0,
			"componentType":5126,
			"count":2393,
			"max":[
				-32,
				1.0037569999694824,
				32
			],
			"min":[
				-64,
				-4.517804145812988,
				0
			],
			"type":"VEC3"
		},
		{
			"bufferView":1,
			"componentType":5126,
			"count":2393,
			"type":"VEC3"
		},
		{
			"bufferView":2,
			"componentType":5126,
			"count":2393,
			"type":"VEC2"
		},
		{
			"bufferView":3,
			"componentType":5123,
			"count":6534,
			"type":"SCALAR"
		}
	],
	"bufferViews":[
		{
			"buffer":0,
			"byteLength":28716,
			"byteOffset":0,
			"target":34962
		},
		{
			"buffer":0,
			"byteLength":28716,
			"byteOffset":28716,
			"target":34962
		},
		{
			"buffer":0,
			"byteLength":19144,
			"byteOffset":57432,
			"target":34962
		},
		{
			"buffer":0,
			"byteLength":13068,
			"byteOffset":76576,
			"target":34963
		}
	],
	"buffers":[
		{
			"byteLength":89644,
			"uri":"map_chunked_045.bin"
		}
	]
}
