{
	"asset":{
		"generator":"Khronos glTF Blender I/O v4.4.55",
		"version":"2.0"
	},
	"scene":0,
	"scenes":[
		{
			"name":"Scene",
			"nodes":[
				0
			]
		}
	],
	"nodes":[
		{
			"mesh":0,
			"name":"map_chunked.004"
		}
	],
	"meshes":[
		{
			"name":"Plane.009",
			"primitives":[
				{
					"attributes":{
						"POSITION":0,
						"NORMAL":1,
						"TEXCOORD_0":2
					},
					"indices":3
				}
			]
		}
	],
	"accessors":[
		{
			"bufferView":0,
			"componentType":5126,
			"count":1448,
			"max":[
				128,
				9.511484146118164,
				-96
			],
			"min":[
				96,
				-1.506054401397705,
				-128
			],
			"type":"VEC3"
		},
		{
			"bufferView":1,
			"componentType":5126,
			"count":1448,
			"type":"VEC3"
		},
		{
			"bufferView":2,
			"componentType":5126,
			"count":1448,
			"type":"VEC2"
		},
		{
			"bufferView":3,
			"componentType":5123,
			"count":6144,
			"type":"SCALAR"
		}
	],
	"bufferViews":[
		{
			"buffer":0,
			"byteLength":17376,
			"byteOffset":0,
			"target":34962
		},
		{
			"buffer":0,
			"byteLength":17376,
			"byteOffset":17376,
			"target":34962
		},
		{
			"buffer":0,
			"byteLength":11584,
			"byteOffset":34752,
			"target":34962
		},
		{
			"buffer":0,
			"byteLength":12288,
			"byteOffset":46336,
			"target":34963
		}
	],
	"buffers":[
		{
			"byteLength":58624,
			"uri":"map_chunked_004.bin"
		}
	]
}
