{
	"asset":{
		"generator":"Khronos glTF Blender I/O v4.4.55",
		"version":"2.0"
	},
	"scene":0,
	"scenes":[
		{
			"name":"Scene",
			"nodes":[
				0
			]
		}
	],
	"nodes":[
		{
			"mesh":0,
			"name":"map_chunked.001"
		}
	],
	"meshes":[
		{
			"name":"Plane.006",
			"primitives":[
				{
					"attributes":{
						"POSITION":0,
						"NORMAL":1,
						"TEXCOORD_0":2
					},
					"indices":3
				}
			]
		}
	],
	"accessors":[
		{
			"bufferView":0,
			"componentType":5126,
			"count":2279,
			"max":[
				-96,
				9.511484146118164,
				128
			],
			"min":[
				-128,
				-5.019772052764893,
				96
			],
			"type":"VEC3"
		},
		{
			"bufferView":1,
			"componentType":5126,
			"count":2279,
			"type":"VEC3"
		},
		{
			"bufferView":2,
			"componentType":5126,
			"count":2279,
			"type":"VEC2"
		},
		{
			"bufferView":3,
			"componentType":5123,
			"count":6534,
			"type":"SCALAR"
		}
	],
	"bufferViews":[
		{
			"buffer":0,
			"byteLength":27348,
			"byteOffset":0,
			"target":34962
		},
		{
			"buffer":0,
			"byteLength":27348,
			"byteOffset":27348,
			"target":34962
		},
		{
			"buffer":0,
			"byteLength":18232,
			"byteOffset":54696,
			"target":34962
		},
		{
			"buffer":0,
			"byteLength":13068,
			"byteOffset":72928,
			"target":34963
		}
	],
	"buffers":[
		{
			"byteLength":85996,
			"uri":"map_chunked_001.bin"
		}
	]
}
