{
	"asset":{
		"generator":"Khronos glTF Blender I/O v4.4.55",
		"version":"2.0"
	},
	"scene":0,
	"scenes":[
		{
			"name":"Scene",
			"nodes":[
				0
			]
		}
	],
	"nodes":[
		{
			"mesh":0,
			"name":"map_chunked.061"
		}
	],
	"meshes":[
		{
			"name":"Plane.066",
			"primitives":[
				{
					"attributes":{
						"POSITION":0,
						"NORMAL":1,
						"TEXCOORD_0":2
					},
					"indices":3
				}
			]
		}
	],
	"accessors":[
		{
			"bufferView":0,
			"componentType":5126,
			"count":3209,
			"max":[
				32,
				1.0037569999694824,
				-64
			],
			"min":[
				0,
				-12.172710418701172,
				-96
			],
			"type":"VEC3"
		},
		{
			"bufferView":1,
			"componentType":5126,
			"count":3209,
			"type":"VEC3"
		},
		{
			"bufferView":2,
			"componentType":5126,
			"count":3209,
			"type":"VEC2"
		},
		{
			"bufferView":3,
			"componentType":5123,
			"count":6534,
			"type":"SCALAR"
		}
	],
	"bufferViews":[
		{
			"buffer":0,
			"byteLength":38508,
			"byteOffset":0,
			"target":34962
		},
		{
			"buffer":0,
			"byteLength":38508,
			"byteOffset":38508,
			"target":34962
		},
		{
			"buffer":0,
			"byteLength":25672,
			"byteOffset":77016,
			"target":34962
		},
		{
			"buffer":0,
			"byteLength":13068,
			"byteOffset":102688,
			"target":34963
		}
	],
	"buffers":[
		{
			"byteLength":115756,
			"uri":"map_chunked_061.bin"
		}
	]
}
