{
	"asset":{
		"generator":"Khronos glTF Blender I/O v4.4.55",
		"version":"2.0"
	},
	"scene":0,
	"scenes":[
		{
			"name":"Scene",
			"nodes":[
				0
			]
		}
	],
	"nodes":[
		{
			"mesh":0,
			"name":"map_chunked.006"
		}
	],
	"meshes":[
		{
			"name":"Plane.011",
			"primitives":[
				{
					"attributes":{
						"POSITION":0,
						"NORMAL":1,
						"TEXCOORD_0":2
					},
					"indices":3
				}
			]
		}
	],
	"accessors":[
		{
			"bufferView":0,
			"componentType":5126,
			"count":1483,
			"max":[
				-96,
				9.511484146118164,
				-32
			],
			"min":[
				-128,
				-8.658992767333984,
				-64
			],
			"type":"VEC3"
		},
		{
			"bufferView":1,
			"componentType":5126,
			"count":1483,
			"type":"VEC3"
		},
		{
			"bufferView":2,
			"componentType":5126,
			"count":1483,
			"type":"VEC2"
		},
		{
			"bufferView":3,
			"componentType":5123,
			"count":6534,
			"type":"SCALAR"
		}
	],
	"bufferViews":[
		{
			"buffer":0,
			"byteLength":17796,
			"byteOffset":0,
			"target":34962
		},
		{
			"buffer":0,
			"byteLength":17796,
			"byteOffset":17796,
			"target":34962
		},
		{
			"buffer":0,
			"byteLength":11864,
			"byteOffset":35592,
			"target":34962
		},
		{
			"buffer":0,
			"byteLength":13068,
			"byteOffset":47456,
			"target":34963
		}
	],
	"buffers":[
		{
			"byteLength":60524,
			"uri":"map_chunked_006.bin"
		}
	]
}
