{
	"asset":{
		"generator":"Khronos glTF Blender I/O v4.4.55",
		"version":"2.0"
	},
	"scene":0,
	"scenes":[
		{
			"name":"Scene",
			"nodes":[
				0
			]
		}
	],
	"nodes":[
		{
			"mesh":0,
			"name":"map_chunked.055"
		}
	],
	"meshes":[
		{
			"name":"Plane.060",
			"primitives":[
				{
					"attributes":{
						"POSITION":0,
						"NORMAL":1,
						"TEXCOORD_0":2
					},
					"indices":3
				}
			]
		}
	],
	"accessors":[
		{
			"bufferView":0,
			"componentType":5126,
			"count":3001,
			"max":[
				32,
				1.0037569999694824,
				-32
			],
			"min":[
				0,
				-10.039379119873047,
				-64
			],
			"type":"VEC3"
		},
		{
			"bufferView":1,
			"componentType":5126,
			"count":3001,
			"type":"VEC3"
		},
		{
			"bufferView":2,
			"componentType":5126,
			"count":3001,
			"type":"VEC2"
		},
		{
			"bufferView":3,
			"componentType":5123,
			"count":6534,
			"type":"SCALAR"
		}
	],
	"bufferViews":[
		{
			"buffer":0,
			"byteLength":36012,
			"byteOffset":0,
			"target":34962
		},
		{
			"buffer":0,
			"byteLength":36012,
			"byteOffset":36012,
			"target":34962
		},
		{
			"buffer":0,
			"byteLength":24008,
			"byteOffset":72024,
			"target":34962
		},
		{
			"buffer":0,
			"byteLength":13068,
			"byteOffset":96032,
			"target":34963
		}
	],
	"buffers":[
		{
			"byteLength":109100,
			"uri":"map_chunked_055.bin"
		}
	]
}
