{
	"asset":{
		"generator":"Khronos glTF Blender I/O v4.4.55",
		"version":"2.0"
	},
	"scene":0,
	"scenes":[
		{
			"name":"Scene",
			"nodes":[
				0
			]
		}
	],
	"nodes":[
		{
			"mesh":0,
			"name":"map_chunked.060"
		}
	],
	"meshes":[
		{
			"name":"Plane.065",
			"primitives":[
				{
					"attributes":{
						"POSITION":0,
						"NORMAL":1,
						"TEXCOORD_0":2
					},
					"indices":3
				}
			]
		}
	],
	"accessors":[
		{
			"bufferView":0,
			"componentType":5126,
			"count":2896,
			"max":[
				64,
				1.0037569999694824,
				-64
			],
			"min":[
				32,
				-3.51389741897583,
				-96
			],
			"type":"VEC3"
		},
		{
			"bufferView":1,
			"componentType":5126,
			"count":2896,
			"type":"VEC3"
		},
		{
			"bufferView":2,
			"componentType":5126,
			"count":2896,
			"type":"VEC2"
		},
		{
			"bufferView":3,
			"componentType":5123,
			"count":6534,
			"type":"SCALAR"
		}
	],
	"bufferViews":[
		{
			"buffer":0,
			"byteLength":34752,
			"byteOffset":0,
			"target":34962
		},
		{
			"buffer":0,
			"byteLength":34752,
			"byteOffset":34752,
			"target":34962
		},
		{
			"buffer":0,
			"byteLength":23168,
			"byteOffset":69504,
			"target":34962
		},
		{
			"buffer":0,
			"byteLength":13068,
			"byteOffset":92672,
			"target":34963
		}
	],
	"buffers":[
		{
			"byteLength":105740,
			"uri":"map_chunked_060.bin"
		}
	]
}
