{
	"asset":{
		"generator":"Khronos glTF Blender I/O v4.4.55",
		"version":"2.0"
	},
	"scene":0,
	"scenes":[
		{
			"name":"Scene",
			"nodes":[
				0
			]
		}
	],
	"nodes":[
		{
			"mesh":0,
			"name":"map_chunked.017"
		}
	],
	"meshes":[
		{
			"name":"Plane.022",
			"primitives":[
				{
					"attributes":{
						"POSITION":0,
						"NORMAL":1,
						"TEXCOORD_0":2
					},
					"indices":3
				}
			]
		}
	],
	"accessors":[
		{
			"bufferView":0,
			"componentType":5126,
			"count":2925,
			"max":[
				-64,
				9.511484146118164,
				128
			],
			"min":[
				-96,
				-10.290355682373047,
				96
			],
			"type":"VEC3"
		},
		{
			"bufferView":1,
			"componentType":5126,
			"count":2925,
			"type":"VEC3"
		},
		{
			"bufferView":2,
			"componentType":5126,
			"count":2925,
			"type":"VEC2"
		},
		{
			"bufferView":3,
			"componentType":5123,
			"count":6534,
			"type":"SCALAR"
		}
	],
	"bufferViews":[
		{
			"buffer":0,
			"byteLength":35100,
			"byteOffset":0,
			"target":34962
		},
		{
			"buffer":0,
			"byteLength":35100,
			"byteOffset":35100,
			"target":34962
		},
		{
			"buffer":0,
			"byteLength":23400,
			"byteOffset":70200,
			"target":34962
		},
		{
			"buffer":0,
			"byteLength":13068,
			"byteOffset":93600,
			"target":34963
		}
	],
	"buffers":[
		{
			"byteLength":106668,
			"uri":"map_chunked_017.bin"
		}
	]
}
