{
	"asset":{
		"generator":"Khronos glTF Blender I/O v4.4.55",
		"version":"2.0"
	},
	"scene":0,
	"scenes":[
		{
			"name":"Scene",
			"nodes":[
				0
			]
		}
	],
	"nodes":[
		{
			"mesh":0,
			"name":"map_chunked.050"
		}
	],
	"meshes":[
		{
			"name":"Plane.055",
			"primitives":[
				{
					"attributes":{
						"POSITION":0,
						"NORMAL":1,
						"TEXCOORD_0":2
					},
					"indices":3
				}
			]
		}
	],
	"accessors":[
		{
			"bufferView":0,
			"componentType":5126,
			"count":1937,
			"max":[
				0,
				1.0037569999694824,
				0
			],
			"min":[
				-32,
				-9.537425994873047,
				-32
			],
			"type":"VEC3"
		},
		{
			"bufferView":1,
			"componentType":5126,
			"count":1937,
			"type":"VEC3"
		},
		{
			"bufferView":2,
			"componentType":5126,
			"count":1937,
			"type":"VEC2"
		},
		{
			"bufferView":3,
			"componentType":5123,
			"count":6534,
			"type":"SCALAR"
		}
	],
	"bufferViews":[
		{
			"buffer":0,
			"byteLength":23244,
			"byteOffset":0,
			"target":34962
		},
		{
			"buffer":0,
			"byteLength":23244,
			"byteOffset":23244,
			"target":34962
		},
		{
			"buffer":0,
			"byteLength":15496,
			"byteOffset":46488,
			"target":34962
		},
		{
			"buffer":0,
			"byteLength":13068,
			"byteOffset":61984,
			"target":34963
		}
	],
	"buffers":[
		{
			"byteLength":75052,
			"uri":"map_chunked_050.bin"
		}
	]
}
