{
	"asset":{
		"generator":"Khronos glTF Blender I/O v4.4.55",
		"version":"2.0"
	},
	"scene":0,
	"scenes":[
		{
			"name":"Scene",
			"nodes":[
				0
			]
		}
	],
	"nodes":[
		{
			"mesh":0,
			"name":"map_chunked.046"
		}
	],
	"meshes":[
		{
			"name":"Plane.051",
			"primitives":[
				{
					"attributes":{
						"POSITION":0,
						"NORMAL":1,
						"TEXCOORD_0":2
					},
					"indices":3
				}
			]
		}
	],
	"accessors":[
		{
			"bufferView":0,
			"componentType":5126,
			"count":2974,
			"max":[
				-64,
				1.0037569999694824,
				32
			],
			"min":[
				-96,
				-26.855060577392578,
				0
			],
			"type":"VEC3"
		},
		{
			"bufferView":1,
			"componentType":5126,
			"count":2974,
			"type":"VEC3"
		},
		{
			"bufferView":2,
			"componentType":5126,
			"count":2974,
			"type":"VEC2"
		},
		{
			"bufferView":3,
			"componentType":5123,
			"count":6534,
			"type":"SCALAR"
		}
	],
	"bufferViews":[
		{
			"buffer":0,
			"byteLength":35688,
			"byteOffset":0,
			"target":34962
		},
		{
			"buffer":0,
			"byteLength":35688,
			"byteOffset":35688,
			"target":34962
		},
		{
			"buffer":0,
			"byteLength":23792,
			"byteOffset":71376,
			"target":34962
		},
		{
			"buffer":0,
			"byteLength":13068,
			"byteOffset":95168,
			"target":34963
		}
	],
	"buffers":[
		{
			"byteLength":108236,
			"uri":"map_chunked_046.bin"
		}
	]
}
