{
	"asset":{
		"generator":"Khronos glTF Blender I/O v4.4.55",
		"version":"2.0"
	},
	"scene":0,
	"scenes":[
		{
			"name":"Scene",
			"nodes":[
				0
			]
		}
	],
	"nodes":[
		{
			"mesh":0,
			"name":"map_chunked.014"
		}
	],
	"meshes":[
		{
			"name":"Plane.019",
			"primitives":[
				{
					"attributes":{
						"POSITION":0,
						"NORMAL":1,
						"TEXCOORD_0":2
					},
					"indices":3
				}
			]
		}
	],
	"accessors":[
		{
			"bufferView":0,
			"componentType":5126,
			"count":2262,
			"max":[
				128,
				9.511484146118164,
				0
			],
			"min":[
				96,
				-8.031536102294922,
				-32
			],
			"type":"VEC3"
		},
		{
			"bufferView":1,
			"componentType":5126,
			"count":2262,
			"type":"VEC3"
		},
		{
			"bufferView":2,
			"componentType":5126,
			"count":2262,
			"type":"VEC2"
		},
		{
			"bufferView":3,
			"componentType":5123,
			"count":6336,
			"type":"SCALAR"
		}
	],
	"bufferViews":[
		{
			"buffer":0,
			"byteLength":27144,
			"byteOffset":0,
			"target":34962
		},
		{
			"buffer":0,
			"byteLength":27144,
			"byteOffset":27144,
			"target":34962
		},
		{
			"buffer":0,
			"byteLength":18096,
			"byteOffset":54288,
			"target":34962
		},
		{
			"buffer":0,
			"byteLength":12672,
			"byteOffset":72384,
			"target":34963
		}
	],
	"buffers":[
		{
			"byteLength":85056,
			"uri":"map_chunked_014.bin"
		}
	]
}
