{
	"asset":{
		"generator":"Khronos glTF Blender I/O v4.4.55",
		"version":"2.0"
	},
	"scene":0,
	"scenes":[
		{
			"name":"Scene",
			"nodes":[
				0
			]
		}
	],
	"nodes":[
		{
			"mesh":0,
			"name":"map_chunked.005"
		}
	],
	"meshes":[
		{
			"name":"Plane.010",
			"primitives":[
				{
					"attributes":{
						"POSITION":0,
						"NORMAL":1,
						"TEXCOORD_0":2
					},
					"indices":3
				}
			]
		}
	],
	"accessors":[
		{
			"bufferView":0,
			"componentType":5126,
			"count":2359,
			"max":[
				-96,
				9.511484146118164,
				-64
			],
			"min":[
				-128,
				-15.560943603515625,
				-96
			],
			"type":"VEC3"
		},
		{
			"bufferView":1,
			"componentType":5126,
			"count":2359,
			"type":"VEC3"
		},
		{
			"bufferView":2,
			"componentType":5126,
			"count":2359,
			"type":"VEC2"
		},
		{
			"bufferView":3,
			"componentType":5123,
			"count":6534,
			"type":"SCALAR"
		}
	],
	"bufferViews":[
		{
			"buffer":0,
			"byteLength":28308,
			"byteOffset":0,
			"target":34962
		},
		{
			"buffer":0,
			"byteLength":28308,
			"byteOffset":28308,
			"target":34962
		},
		{
			"buffer":0,
			"byteLength":18872,
			"byteOffset":56616,
			"target":34962
		},
		{
			"buffer":0,
			"byteLength":13068,
			"byteOffset":75488,
			"target":34963
		}
	],
	"buffers":[
		{
			"byteLength":88556,
			"uri":"map_chunked_005.bin"
		}
	]
}
