{
	"asset":{
		"generator":"Khronos glTF Blender I/O v4.4.55",
		"version":"2.0"
	},
	"scene":0,
	"scenes":[
		{
			"name":"Scene",
			"nodes":[
				0
			]
		}
	],
	"nodes":[
		{
			"mesh":0,
			"name":"map_chunked.033"
		}
	],
	"meshes":[
		{
			"name":"Plane.038",
			"primitives":[
				{
					"attributes":{
						"POSITION":0,
						"NORMAL":1,
						"TEXCOORD_0":2
					},
					"indices":3
				}
			]
		}
	],
	"accessors":[
		{
			"bufferView":0,
			"componentType":5126,
			"count":2966,
			"max":[
				-32,
				0.12532378733158112,
				96
			],
			"min":[
				-64,
				-16.062908172607422,
				64
			],
			"type":"VEC3"
		},
		{
			"bufferView":1,
			"componentType":5126,
			"count":2966,
			"type":"VEC3"
		},
		{
			"bufferView":2,
			"componentType":5126,
			"count":2966,
			"type":"VEC2"
		},
		{
			"bufferView":3,
			"componentType":5123,
			"count":6534,
			"type":"SCALAR"
		}
	],
	"bufferViews":[
		{
			"buffer":0,
			"byteLength":35592,
			"byteOffset":0,
			"target":34962
		},
		{
			"buffer":0,
			"byteLength":35592,
			"byteOffset":35592,
			"target":34962
		},
		{
			"buffer":0,
			"byteLength":23728,
			"byteOffset":71184,
			"target":34962
		},
		{
			"buffer":0,
			"byteLength":13068,
			"byteOffset":94912,
			"target":34963
		}
	],
	"buffers":[
		{
			"byteLength":107980,
			"uri":"map_chunked_033.bin"
		}
	]
}
