{
	"asset":{
		"generator":"Khronos glTF Blender I/O v4.4.55",
		"version":"2.0"
	},
	"scene":0,
	"scenes":[
		{
			"name":"Scene",
			"nodes":[
				0
			]
		}
	],
	"nodes":[
		{
			"mesh":0,
			"name":"map_chunked.016"
		}
	],
	"meshes":[
		{
			"name":"Plane.021",
			"primitives":[
				{
					"attributes":{
						"POSITION":0,
						"NORMAL":1,
						"TEXCOORD_0":2
					},
					"indices":3
				}
			]
		}
	],
	"accessors":[
		{
			"bufferView":0,
			"componentType":5126,
			"count":2174,
			"max":[
				128,
				9.511484146118164,
				-64
			],
			"min":[
				96,
				-5.019772052764893,
				-96
			],
			"type":"VEC3"
		},
		{
			"bufferView":1,
			"componentType":5126,
			"count":2174,
			"type":"VEC3"
		},
		{
			"bufferView":2,
			"componentType":5126,
			"count":2174,
			"type":"VEC2"
		},
		{
			"bufferView":3,
			"componentType":5123,
			"count":6336,
			"type":"SCALAR"
		}
	],
	"bufferViews":[
		{
			"buffer":0,
			"byteLength":26088,
			"byteOffset":0,
			"target":34962
		},
		{
			"buffer":0,
			"byteLength":26088,
			"byteOffset":26088,
			"target":34962
		},
		{
			"buffer":0,
			"byteLength":17392,
			"byteOffset":52176,
			"target":34962
		},
		{
			"buffer":0,
			"byteLength":12672,
			"byteOffset":69568,
			"target":34963
		}
	],
	"buffers":[
		{
			"byteLength":82240,
			"uri":"map_chunked_016.bin"
		}
	]
}
