{
	"asset":{
		"generator":"Khronos glTF Blender I/O v4.4.55",
		"version":"2.0"
	},
	"scene":0,
	"scenes":[
		{
			"name":"Scene",
			"nodes":[
				0
			]
		}
	],
	"nodes":[
		{
			"mesh":0,
			"name":"map_chunked.034"
		}
	],
	"meshes":[
		{
			"name":"Plane.039",
			"primitives":[
				{
					"attributes":{
						"POSITION":0,
						"NORMAL":1,
						"TEXCOORD_0":2
					},
					"indices":3
				}
			]
		}
	],
	"accessors":[
		{
			"bufferView":0,
			"componentType":5126,
			"count":3103,
			"max":[
				-64,
				1.0037569999694824,
				96
			],
			"min":[
				-96,
				-16.062908172607422,
				64
			],
			"type":"VEC3"
		},
		{
			"bufferView":1,
			"componentType":5126,
			"count":3103,
			"type":"VEC3"
		},
		{
			"bufferView":2,
			"componentType":5126,
			"count":3103,
			"type":"VEC2"
		},
		{
			"bufferView":3,
			"componentType":5123,
			"count":6534,
			"type":"SCALAR"
		}
	],
	"bufferViews":[
		{
			"buffer":0,
			"byteLength":37236,
			"byteOffset":0,
			"target":34962
		},
		{
			"buffer":0,
			"byteLength":37236,
			"byteOffset":37236,
			"target":34962
		},
		{
			"buffer":0,
			"byteLength":24824,
			"byteOffset":74472,
			"target":34962
		},
		{
			"buffer":0,
			"byteLength":13068,
			"byteOffset":99296,
			"target":34963
		}
	],
	"buffers":[
		{
			"byteLength":112364,
			"uri":"map_chunked_034.bin"
		}
	]
}
