{
	"asset":{
		"generator":"Khronos glTF Blender I/O v4.4.55",
		"version":"2.0"
	},
	"scene":0,
	"scenes":[
		{
			"name":"Scene",
			"nodes":[
				0
			]
		}
	],
	"nodes":[
		{
			"mesh":0,
			"name":"map_chunked.048"
		}
	],
	"meshes":[
		{
			"name":"Plane.053",
			"primitives":[
				{
					"attributes":{
						"POSITION":0,
						"NORMAL":1,
						"TEXCOORD_0":2
					},
					"indices":3
				}
			]
		}
	],
	"accessors":[
		{
			"bufferView":0,
			"componentType":5126,
			"count":3311,
			"max":[
				64,
				1.0037569999694824,
				0
			],
			"min":[
				32,
				-14.431537628173828,
				-32
			],
			"type":"VEC3"
		},
		{
			"bufferView":1,
			"componentType":5126,
			"count":3311,
			"type":"VEC3"
		},
		{
			"bufferView":2,
			"componentType":5126,
			"count":3311,
			"type":"VEC2"
		},
		{
			"bufferView":3,
			"componentType":5123,
			"count":6534,
			"type":"SCALAR"
		}
	],
	"bufferViews":[
		{
			"buffer":0,
			"byteLength":39732,
			"byteOffset":0,
			"target":34962
		},
		{
			"buffer":0,
			"byteLength":39732,
			"byteOffset":39732,
			"target":34962
		},
		{
			"buffer":0,
			"byteLength":26488,
			"byteOffset":79464,
			"target":34962
		},
		{
			"buffer":0,
			"byteLength":13068,
			"byteOffset":105952,
			"target":34963
		}
	],
	"buffers":[
		{
			"byteLength":119020,
			"uri":"map_chunked_048.bin"
		}
	]
}
