{
	"asset":{
		"generator":"Khronos glTF Blender I/O v4.4.55",
		"version":"2.0"
	},
	"scene":0,
	"scenes":[
		{
			"name":"Scene",
			"nodes":[
				0
			]
		}
	],
	"nodes":[
		{
			"mesh":0,
			"name":"map_chunked.058"
		}
	],
	"meshes":[
		{
			"name":"Plane.063",
			"primitives":[
				{
					"attributes":{
						"POSITION":0,
						"NORMAL":1,
						"TEXCOORD_0":2
					},
					"indices":3
				}
			]
		}
	],
	"accessors":[
		{
			"bufferView":0,
			"componentType":5126,
			"count":2967,
			"max":[
				-64,
				9.511484146118164,
				-32
			],
			"min":[
				-96,
				-13.553112030029297,
				-64
			],
			"type":"VEC3"
		},
		{
			"bufferView":1,
			"componentType":5126,
			"count":2967,
			"type":"VEC3"
		},
		{
			"bufferView":2,
			"componentType":5126,
			"count":2967,
			"type":"VEC2"
		},
		{
			"bufferView":3,
			"componentType":5123,
			"count":6534,
			"type":"SCALAR"
		}
	],
	"bufferViews":[
		{
			"buffer":0,
			"byteLength":35604,
			"byteOffset":0,
			"target":34962
		},
		{
			"buffer":0,
			"byteLength":35604,
			"byteOffset":35604,
			"target":34962
		},
		{
			"buffer":0,
			"byteLength":23736,
			"byteOffset":71208,
			"target":34962
		},
		{
			"buffer":0,
			"byteLength":13068,
			"byteOffset":94944,
			"target":34963
		}
	],
	"buffers":[
		{
			"byteLength":108012,
			"uri":"map_chunked_058.bin"
		}
	]
}
