{
	"asset":{
		"generator":"Khronos glTF Blender I/O v4.4.55",
		"version":"2.0"
	},
	"scene":0,
	"scenes":[
		{
			"name":"Scene",
			"nodes":[
				0
			]
		}
	],
	"nodes":[
		{
			"mesh":0,
			"name":"map_chunked.031"
		}
	],
	"meshes":[
		{
			"name":"Plane.036",
			"primitives":[
				{
					"attributes":{
						"POSITION":0,
						"NORMAL":1,
						"TEXCOORD_0":2
					},
					"indices":3
				}
			]
		}
	],
	"accessors":[
		{
			"bufferView":0,
			"componentType":5126,
			"count":2886,
			"max":[
				32,
				1.0037569999694824,
				96
			],
			"min":[
				0,
				-6.023693561553955,
				64
			],
			"type":"VEC3"
		},
		{
			"bufferView":1,
			"componentType":5126,
			"count":2886,
			"type":"VEC3"
		},
		{
			"bufferView":2,
			"componentType":5126,
			"count":2886,
			"type":"VEC2"
		},
		{
			"bufferView":3,
			"componentType":5123,
			"count":6534,
			"type":"SCALAR"
		}
	],
	"bufferViews":[
		{
			"buffer":0,
			"byteLength":34632,
			"byteOffset":0,
			"target":34962
		},
		{
			"buffer":0,
			"byteLength":34632,
			"byteOffset":34632,
			"target":34962
		},
		{
			"buffer":0,
			"byteLength":23088,
			"byteOffset":69264,
			"target":34962
		},
		{
			"buffer":0,
			"byteLength":13068,
			"byteOffset":92352,
			"target":34963
		}
	],
	"buffers":[
		{
			"byteLength":105420,
			"uri":"map_chunked_031.bin"
		}
	]
}
