{
	"asset":{
		"generator":"Khronos glTF Blender I/O v4.4.55",
		"version":"2.0"
	},
	"scene":0,
	"scenes":[
		{
			"name":"Scene",
			"nodes":[
				0
			]
		}
	],
	"nodes":[
		{
			"mesh":0,
			"name":"map_chunked.042"
		}
	],
	"meshes":[
		{
			"name":"Plane.047",
			"primitives":[
				{
					"attributes":{
						"POSITION":0,
						"NORMAL":1,
						"TEXCOORD_0":2
					},
					"indices":3
				}
			]
		}
	],
	"accessors":[
		{
			"bufferView":0,
			"componentType":5126,
			"count":3368,
			"max":[
				64,
				1.0037569999694824,
				32
			],
			"min":[
				32,
				-13.553112030029297,
				0
			],
			"type":"VEC3"
		},
		{
			"bufferView":1,
			"componentType":5126,
			"count":3368,
			"type":"VEC3"
		},
		{
			"bufferView":2,
			"componentType":5126,
			"count":3368,
			"type":"VEC2"
		},
		{
			"bufferView":3,
			"componentType":5123,
			"count":6534,
			"type":"SCALAR"
		}
	],
	"bufferViews":[
		{
			"buffer":0,
			"byteLength":40416,
			"byteOffset":0,
			"target":34962
		},
		{
			"buffer":0,
			"byteLength":40416,
			"byteOffset":40416,
			"target":34962
		},
		{
			"buffer":0,
			"byteLength":26944,
			"byteOffset":80832,
			"target":34962
		},
		{
			"buffer":0,
			"byteLength":13068,
			"byteOffset":107776,
			"target":34963
		}
	],
	"buffers":[
		{
			"byteLength":120844,
			"uri":"map_chunked_042.bin"
		}
	]
}
