{
	"asset":{
		"generator":"Khronos glTF Blender I/O v4.4.55",
		"version":"2.0"
	},
	"scene":0,
	"scenes":[
		{
			"name":"Scene",
			"nodes":[
				0
			]
		}
	],
	"nodes":[
		{
			"mesh":0,
			"name":"map_chunked.020"
		}
	],
	"meshes":[
		{
			"name":"Plane.025",
			"primitives":[
				{
					"attributes":{
						"POSITION":0,
						"NORMAL":1,
						"TEXCOORD_0":2
					},
					"indices":3
				}
			]
		}
	],
	"accessors":[
		{
			"bufferView":0,
			"componentType":5126,
			"count":1657,
			"max":[
				32,
				9.511484146118164,
				128
			],
			"min":[
				0,
				-4.141339302062988,
				96
			],
			"type":"VEC3"
		},
		{
			"bufferView":1,
			"componentType":5126,
			"count":1657,
			"type":"VEC3"
		},
		{
			"bufferView":2,
			"componentType":5126,
			"count":1657,
			"type":"VEC2"
		},
		{
			"bufferView":3,
			"componentType":5123,
			"count":6534,
			"type":"SCALAR"
		}
	],
	"bufferViews":[
		{
			"buffer":0,
			"byteLength":19884,
			"byteOffset":0,
			"target":34962
		},
		{
			"buffer":0,
			"byteLength":19884,
			"byteOffset":19884,
			"target":34962
		},
		{
			"buffer":0,
			"byteLength":13256,
			"byteOffset":39768,
			"target":34962
		},
		{
			"buffer":0,
			"byteLength":13068,
			"byteOffset":53024,
			"target":34963
		}
	],
	"buffers":[
		{
			"byteLength":66092,
			"uri":"map_chunked_020.bin"
		}
	]
}
