{
	"asset":{
		"generator":"Khronos glTF Blender I/O v4.4.55",
		"version":"2.0"
	},
	"scene":0,
	"scenes":[
		{
			"name":"Scene",
			"nodes":[
				0
			]
		}
	],
	"nodes":[
		{
			"mesh":0,
			"name":"map_chunked.041"
		}
	],
	"meshes":[
		{
			"name":"Plane.046",
			"primitives":[
				{
					"attributes":{
						"POSITION":0,
						"NORMAL":1,
						"TEXCOORD_0":2
					},
					"indices":3
				}
			]
		}
	],
	"accessors":[
		{
			"bufferView":0,
			"componentType":5126,
			"count":3066,
			"max":[
				96,
				1.0037569999694824,
				32
			],
			"min":[
				64,
				-5.772716999053955,
				0
			],
			"type":"VEC3"
		},
		{
			"bufferView":1,
			"componentType":5126,
			"count":3066,
			"type":"VEC3"
		},
		{
			"bufferView":2,
			"componentType":5126,
			"count":3066,
			"type":"VEC2"
		},
		{
			"bufferView":3,
			"componentType":5123,
			"count":6534,
			"type":"SCALAR"
		}
	],
	"bufferViews":[
		{
			"buffer":0,
			"byteLength":36792,
			"byteOffset":0,
			"target":34962
		},
		{
			"buffer":0,
			"byteLength":36792,
			"byteOffset":36792,
			"target":34962
		},
		{
			"buffer":0,
			"byteLength":24528,
			"byteOffset":73584,
			"target":34962
		},
		{
			"buffer":0,
			"byteLength":13068,
			"byteOffset":98112,
			"target":34963
		}
	],
	"buffers":[
		{
			"byteLength":111180,
			"uri":"map_chunked_041.bin"
		}
	]
}
