{
	"asset":{
		"generator":"Khronos glTF Blender I/O v4.4.55",
		"version":"2.0"
	},
	"scene":0,
	"scenes":[
		{
			"name":"Scene",
			"nodes":[
				0
			]
		}
	],
	"nodes":[
		{
			"mesh":0,
			"name":"map_chunked.002"
		}
	],
	"meshes":[
		{
			"name":"Plane.007",
			"primitives":[
				{
					"attributes":{
						"POSITION":0,
						"NORMAL":1,
						"TEXCOORD_0":2
					},
					"indices":3
				}
			]
		}
	],
	"accessors":[
		{
			"bufferView":0,
			"componentType":5126,
			"count":1122,
			"max":[
				128,
				9.511484146118164,
				128
			],
			"min":[
				96,
				9.511484146118164,
				96
			],
			"type":"VEC3"
		},
		{
			"bufferView":1,
			"componentType":5126,
			"count":1122,
			"type":"VEC3"
		},
		{
			"bufferView":2,
			"componentType":5126,
			"count":1122,
			"type":"VEC2"
		},
		{
			"bufferView":3,
			"componentType":5123,
			"count":6336,
			"type":"SCALAR"
		}
	],
	"bufferViews":[
		{
			"buffer":0,
			"byteLength":13464,
			"byteOffset":0,
			"target":34962
		},
		{
			"buffer":0,
			"byteLength":13464,
			"byteOffset":13464,
			"target":34962
		},
		{
			"buffer":0,
			"byteLength":8976,
			"byteOffset":26928,
			"target":34962
		},
		{
			"buffer":0,
			"byteLength":12672,
			"byteOffset":35904,
			"target":34963
		}
	],
	"buffers":[
		{
			"byteLength":48576,
			"uri":"map_chunked_002.bin"
		}
	]
}
