{
	"asset":{
		"generator":"Khronos glTF Blender I/O v4.4.55",
		"version":"2.0"
	},
	"scene":0,
	"scenes":[
		{
			"name":"Scene",
			"nodes":[
				0
			]
		}
	],
	"nodes":[
		{
			"mesh":0,
			"name":"map_chunked.053"
		}
	],
	"meshes":[
		{
			"name":"Plane.058",
			"primitives":[
				{
					"attributes":{
						"POSITION":0,
						"NORMAL":1,
						"TEXCOORD_0":2
					},
					"indices":3
				}
			]
		}
	],
	"accessors":[
		{
			"bufferView":0,
			"componentType":5126,
			"count":3133,
			"max":[
				96,
				1.0037569999694824,
				-32
			],
			"min":[
				64,
				-12.549175262451172,
				-64
			],
			"type":"VEC3"
		},
		{
			"bufferView":1,
			"componentType":5126,
			"count":3133,
			"type":"VEC3"
		},
		{
			"bufferView":2,
			"componentType":5126,
			"count":3133,
			"type":"VEC2"
		},
		{
			"bufferView":3,
			"componentType":5123,
			"count":6534,
			"type":"SCALAR"
		}
	],
	"bufferViews":[
		{
			"buffer":0,
			"byteLength":37596,
			"byteOffset":0,
			"target":34962
		},
		{
			"buffer":0,
			"byteLength":37596,
			"byteOffset":37596,
			"target":34962
		},
		{
			"buffer":0,
			"byteLength":25064,
			"byteOffset":75192,
			"target":34962
		},
		{
			"buffer":0,
			"byteLength":13068,
			"byteOffset":100256,
			"target":34963
		}
	],
	"buffers":[
		{
			"byteLength":113324,
			"uri":"map_chunked_053.bin"
		}
	]
}
