{
	"asset":{
		"generator":"Khronos glTF Blender I/O v4.4.55",
		"version":"2.0"
	},
	"scene":0,
	"scenes":[
		{
			"name":"Scene",
			"nodes":[
				0
			]
		}
	],
	"nodes":[
		{
			"mesh":0,
			"name":"map_chunked.037"
		}
	],
	"meshes":[
		{
			"name":"Plane.042",
			"primitives":[
				{
					"attributes":{
						"POSITION":0,
						"NORMAL":1,
						"TEXCOORD_0":2
					},
					"indices":3
				}
			]
		}
	],
	"accessors":[
		{
			"bufferView":0,
			"componentType":5126,
			"count":3322,
			"max":[
				32,
				1.0037569999694824,
				64
			],
			"min":[
				0,
				-17.945262908935547,
				32
			],
			"type":"VEC3"
		},
		{
			"bufferView":1,
			"componentType":5126,
			"count":3322,
			"type":"VEC3"
		},
		{
			"bufferView":2,
			"componentType":5126,
			"count":3322,
			"type":"VEC2"
		},
		{
			"bufferView":3,
			"componentType":5123,
			"count":6534,
			"type":"SCALAR"
		}
	],
	"bufferViews":[
		{
			"buffer":0,
			"byteLength":39864,
			"byteOffset":0,
			"target":34962
		},
		{
			"buffer":0,
			"byteLength":39864,
			"byteOffset":39864,
			"target":34962
		},
		{
			"buffer":0,
			"byteLength":26576,
			"byteOffset":79728,
			"target":34962
		},
		{
			"buffer":0,
			"byteLength":13068,
			"byteOffset":106304,
			"target":34963
		}
	],
	"buffers":[
		{
			"byteLength":119372,
			"uri":"map_chunked_037.bin"
		}
	]
}
