{
	"asset":{
		"generator":"Khronos glTF Blender I/O v4.4.55",
		"version":"2.0"
	},
	"scene":0,
	"scenes":[
		{
			"name":"Scene",
			"nodes":[
				0
			]
		}
	],
	"nodes":[
		{
			"mesh":0,
			"name":"map_chunked.018"
		}
	],
	"meshes":[
		{
			"name":"Plane.023",
			"primitives":[
				{
					"attributes":{
						"POSITION":0,
						"NORMAL":1,
						"TEXCOORD_0":2
					},
					"indices":3
				}
			]
		}
	],
	"accessors":[
		{
			"bufferView":0,
			"componentType":5126,
			"count":2872,
			"max":[
				-32,
				9.511484146118164,
				128
			],
			"min":[
				-64,
				-15.05898666381836,
				96
			],
			"type":"VEC3"
		},
		{
			"bufferView":1,
			"componentType":5126,
			"count":2872,
			"type":"VEC3"
		},
		{
			"bufferView":2,
			"componentType":5126,
			"count":2872,
			"type":"VEC2"
		},
		{
			"bufferView":3,
			"componentType":5123,
			"count":6534,
			"type":"SCALAR"
		}
	],
	"bufferViews":[
		{
			"buffer":0,
			"byteLength":34464,
			"byteOffset":0,
			"target":34962
		},
		{
			"buffer":0,
			"byteLength":34464,
			"byteOffset":34464,
			"target":34962
		},
		{
			"buffer":0,
			"byteLength":22976,
			"byteOffset":68928,
			"target":34962
		},
		{
			"buffer":0,
			"byteLength":13068,
			"byteOffset":91904,
			"target":34963
		}
	],
	"buffers":[
		{
			"byteLength":104972,
			"uri":"map_chunked_018.bin"
		}
	]
}
