{
	"asset":{
		"generator":"Khronos glTF Blender I/O v4.4.55",
		"version":"2.0"
	},
	"scene":0,
	"scenes":[
		{
			"name":"Scene",
			"nodes":[
				0
			]
		}
	],
	"nodes":[
		{
			"mesh":0,
			"name":"map_chunked.010"
		}
	],
	"meshes":[
		{
			"name":"Plane.015",
			"primitives":[
				{
					"attributes":{
						"POSITION":0,
						"NORMAL":1,
						"TEXCOORD_0":2
					},
					"indices":3
				}
			]
		}
	],
	"accessors":[
		{
			"bufferView":0,
			"componentType":5126,
			"count":2153,
			"max":[
				-96,
				9.511484146118164,
				96
			],
			"min":[
				-128,
				-4.015851020812988,
				64
			],
			"type":"VEC3"
		},
		{
			"bufferView":1,
			"componentType":5126,
			"count":2153,
			"type":"VEC3"
		},
		{
			"bufferView":2,
			"componentType":5126,
			"count":2153,
			"type":"VEC2"
		},
		{
			"bufferView":3,
			"componentType":5123,
			"count":6534,
			"type":"SCALAR"
		}
	],
	"bufferViews":[
		{
			"buffer":0,
			"byteLength":25836,
			"byteOffset":0,
			"target":34962
		},
		{
			"buffer":0,
			"byteLength":25836,
			"byteOffset":25836,
			"target":34962
		},
		{
			"buffer":0,
			"byteLength":17224,
			"byteOffset":51672,
			"target":34962
		},
		{
			"buffer":0,
			"byteLength":13068,
			"byteOffset":68896,
			"target":34963
		}
	],
	"buffers":[
		{
			"byteLength":81964,
			"uri":"map_chunked_010.bin"
		}
	]
}
