{
	"asset":{
		"generator":"Khronos glTF Blender I/O v4.4.55",
		"version":"2.0"
	},
	"scene":0,
	"scenes":[
		{
			"name":"Scene",
			"nodes":[
				0
			]
		}
	],
	"nodes":[
		{
			"mesh":0,
			"name":"map_chunked.024"
		}
	],
	"meshes":[
		{
			"name":"Plane.029",
			"primitives":[
				{
					"attributes":{
						"POSITION":0,
						"NORMAL":1,
						"TEXCOORD_0":2
					},
					"indices":3
				}
			]
		}
	],
	"accessors":[
		{
			"bufferView":0,
			"componentType":5126,
			"count":2751,
			"max":[
				64,
				9.511484146118164,
				-96
			],
			"min":[
				32,
				-7.153103351593018,
				-128
			],
			"type":"VEC3"
		},
		{
			"bufferView":1,
			"componentType":5126,
			"count":2751,
			"type":"VEC3"
		},
		{
			"bufferView":2,
			"componentType":5126,
			"count":2751,
			"type":"VEC2"
		},
		{
			"bufferView":3,
			"componentType":5123,
			"count":6336,
			"type":"SCALAR"
		}
	],
	"bufferViews":[
		{
			"buffer":0,
			"byteLength":33012,
			"byteOffset":0,
			"target":34962
		},
		{
			"buffer":0,
			"byteLength":33012,
			"byteOffset":33012,
			"target":34962
		},
		{
			"buffer":0,
			"byteLength":22008,
			"byteOffset":66024,
			"target":34962
		},
		{
			"buffer":0,
			"byteLength":12672,
			"byteOffset":88032,
			"target":34963
		}
	],
	"buffers":[
		{
			"byteLength":100704,
			"uri":"map_chunked_024.bin"
		}
	]
}
