{
	"asset":{
		"generator":"Khronos glTF Blender I/O v4.4.55",
		"version":"2.0"
	},
	"scene":0,
	"scenes":[
		{
			"name":"Scene",
			"nodes":[
				0
			]
		}
	],
	"nodes":[
		{
			"mesh":0,
			"name":"map_chunked.062"
		}
	],
	"meshes":[
		{
			"name":"Plane.067",
			"primitives":[
				{
					"attributes":{
						"POSITION":0,
						"NORMAL":1,
						"TEXCOORD_0":2
					},
					"indices":3
				}
			]
		}
	],
	"accessors":[
		{
			"bufferView":0,
			"componentType":5126,
			"count":3071,
			"max":[
				0,
				1.0037569999694824,
				-64
			],
			"min":[
				-32,
				-13.804088592529297,
				-96
			],
			"type":"VEC3"
		},
		{
			"bufferView":1,
			"componentType":5126,
			"count":3071,
			"type":"VEC3"
		},
		{
			"bufferView":2,
			"componentType":5126,
			"count":3071,
			"type":"VEC2"
		},
		{
			"bufferView":3,
			"componentType":5123,
			"count":6534,
			"type":"SCALAR"
		}
	],
	"bufferViews":[
		{
			"buffer":0,
			"byteLength":36852,
			"byteOffset":0,
			"target":34962
		},
		{
			"buffer":0,
			"byteLength":36852,
			"byteOffset":36852,
			"target":34962
		},
		{
			"buffer":0,
			"byteLength":24568,
			"byteOffset":73704,
			"target":34962
		},
		{
			"buffer":0,
			"byteLength":13068,
			"byteOffset":98272,
			"target":34963
		}
	],
	"buffers":[
		{
			"byteLength":111340,
			"uri":"map_chunked_062.bin"
		}
	]
}
