{
	"asset":{
		"generator":"Khronos glTF Blender I/O v4.4.55",
		"version":"2.0"
	},
	"scene":0,
	"scenes":[
		{
			"name":"Scene",
			"nodes":[
				0
			]
		}
	],
	"nodes":[
		{
			"mesh":0,
			"name":"map_chunked.043"
		}
	],
	"materials":[
		{
			"doubleSided":true,
			"name":"map_material",
			"pbrMetallicRoughness":{
				"baseColorTexture":{
					"index":0
				},
				"metallicFactor":0,
				"roughnessFactor":0.5
			}
		}
	],
	"meshes":[
		{
			"name":"Plane.048",
			"primitives":[
				{
					"attributes":{
						"POSITION":0,
						"NORMAL":1,
						"TEXCOORD_0":2
					},
					"indices":3,
					"material":0
				}
			]
		}
	],
	"textures":[
		{
			"sampler":0,
			"source":0
		}
	],
	"images":[
		{
			"mimeType":"image/png",
			"name":"spr_terrain_texture",
			"uri":"spr_terrain_texture.png"
		}
	],
	"accessors":[
		{
			"bufferView":0,
			"componentType":5126,
			"count":4356,
			"max":[
				32,
				1.0037569999694824,
				32
			],
			"min":[
				0,
				-8.031536102294922,
				0
			],
			"type":"VEC3"
		},
		{
			"bufferView":1,
			"componentType":5126,
			"count":4356,
			"type":"VEC3"
		},
		{
			"bufferView":2,
			"componentType":5126,
			"count":4356,
			"type":"VEC2"
		},
		{
			"bufferView":3,
			"componentType":5123,
			"count":6534,
			"type":"SCALAR"
		}
	],
	"bufferViews":[
		{
			"buffer":0,
			"byteLength":52272,
			"byteOffset":0,
			"target":34962
		},
		{
			"buffer":0,
			"byteLength":52272,
			"byteOffset":52272,
			"target":34962
		},
		{
			"buffer":0,
			"byteLength":34848,
			"byteOffset":104544,
			"target":34962
		},
		{
			"buffer":0,
			"byteLength":13068,
			"byteOffset":139392,
			"target":34963
		}
	],
	"samplers":[
		{
			"magFilter":9728,
			"minFilter":9984
		}
	],
	"buffers":[
		{
			"byteLength":152460,
			"uri":"map_chunked_043.bin"
		}
	]
}
