{
	"asset":{
		"generator":"Khronos glTF Blender I/O v4.4.55",
		"version":"2.0"
	},
	"scene":0,
	"scenes":[
		{
			"name":"Scene",
			"nodes":[
				0
			]
		}
	],
	"nodes":[
		{
			"mesh":0,
			"name":"map_chunked.009"
		}
	],
	"meshes":[
		{
			"name":"Plane.014",
			"primitives":[
				{
					"attributes":{
						"POSITION":0,
						"NORMAL":1,
						"TEXCOORD_0":2
					},
					"indices":3
				}
			]
		}
	],
	"accessors":[
		{
			"bufferView":0,
			"componentType":5126,
			"count":3201,
			"max":[
				-96,
				9.511484146118164,
				64
			],
			"min":[
				-128,
				-27.10604476928711,
				32
			],
			"type":"VEC3"
		},
		{
			"bufferView":1,
			"componentType":5126,
			"count":3201,
			"type":"VEC3"
		},
		{
			"bufferView":2,
			"componentType":5126,
			"count":3201,
			"type":"VEC2"
		},
		{
			"bufferView":3,
			"componentType":5123,
			"count":6534,
			"type":"SCALAR"
		}
	],
	"bufferViews":[
		{
			"buffer":0,
			"byteLength":38412,
			"byteOffset":0,
			"target":34962
		},
		{
			"buffer":0,
			"byteLength":38412,
			"byteOffset":38412,
			"target":34962
		},
		{
			"buffer":0,
			"byteLength":25608,
			"byteOffset":76824,
			"target":34962
		},
		{
			"buffer":0,
			"byteLength":13068,
			"byteOffset":102432,
			"target":34963
		}
	],
	"buffers":[
		{
			"byteLength":115500,
			"uri":"map_chunked_009.bin"
		}
	]
}
