{
	"asset":{
		"generator":"Khronos glTF Blender I/O v4.4.55",
		"version":"2.0"
	},
	"scene":0,
	"scenes":[
		{
			"name":"Scene",
			"nodes":[
				0
			]
		}
	],
	"nodes":[
		{
			"mesh":0,
			"name":"map_chunked.029"
		}
	],
	"meshes":[
		{
			"name":"Plane.034",
			"primitives":[
				{
					"attributes":{
						"POSITION":0,
						"NORMAL":1,
						"TEXCOORD_0":2
					},
					"indices":3
				}
			]
		}
	],
	"accessors":[
		{
			"bufferView":0,
			"componentType":5126,
			"count":2163,
			"max":[
				96,
				9.511484146118164,
				96
			],
			"min":[
				64,
				-4.141339302062988,
				64
			],
			"type":"VEC3"
		},
		{
			"bufferView":1,
			"componentType":5126,
			"count":2163,
			"type":"VEC3"
		},
		{
			"bufferView":2,
			"componentType":5126,
			"count":2163,
			"type":"VEC2"
		},
		{
			"bufferView":3,
			"componentType":5123,
			"count":6534,
			"type":"SCALAR"
		}
	],
	"bufferViews":[
		{
			"buffer":0,
			"byteLength":25956,
			"byteOffset":0,
			"target":34962
		},
		{
			"buffer":0,
			"byteLength":25956,
			"byteOffset":25956,
			"target":34962
		},
		{
			"buffer":0,
			"byteLength":17304,
			"byteOffset":51912,
			"target":34962
		},
		{
			"buffer":0,
			"byteLength":13068,
			"byteOffset":69216,
			"target":34963
		}
	],
	"buffers":[
		{
			"byteLength":82284,
			"uri":"map_chunked_029.bin"
		}
	]
}
