{
	"asset":{
		"generator":"Khronos glTF Blender I/O v4.4.55",
		"version":"2.0"
	},
	"scene":0,
	"scenes":[
		{
			"name":"Scene",
			"nodes":[
				0
			]
		}
	],
	"nodes":[
		{
			"mesh":0,
			"name":"map_chunked.019"
		}
	],
	"meshes":[
		{
			"name":"Plane.024",
			"primitives":[
				{
					"attributes":{
						"POSITION":0,
						"NORMAL":1,
						"TEXCOORD_0":2
					},
					"indices":3
				}
			]
		}
	],
	"accessors":[
		{
			"bufferView":0,
			"componentType":5126,
			"count":1905,
			"max":[
				0,
				9.511484146118164,
				128
			],
			"min":[
				-32,
				-6.400158405303955,
				96
			],
			"type":"VEC3"
		},
		{
			"bufferView":1,
			"componentType":5126,
			"count":1905,
			"type":"VEC3"
		},
		{
			"bufferView":2,
			"componentType":5126,
			"count":1905,
			"type":"VEC2"
		},
		{
			"bufferView":3,
			"componentType":5123,
			"count":6534,
			"type":"SCALAR"
		}
	],
	"bufferViews":[
		{
			"buffer":0,
			"byteLength":22860,
			"byteOffset":0,
			"target":34962
		},
		{
			"buffer":0,
			"byteLength":22860,
			"byteOffset":22860,
			"target":34962
		},
		{
			"buffer":0,
			"byteLength":15240,
			"byteOffset":45720,
			"target":34962
		},
		{
			"buffer":0,
			"byteLength":13068,
			"byteOffset":60960,
			"target":34963
		}
	],
	"buffers":[
		{
			"byteLength":74028,
			"uri":"map_chunked_019.bin"
		}
	]
}
