{
	"asset":{
		"generator":"Khronos glTF Blender I/O v4.4.55",
		"version":"2.0"
	},
	"scene":0,
	"scenes":[
		{
			"name":"Scene",
			"nodes":[
				0
			]
		}
	],
	"nodes":[
		{
			"mesh":0,
			"name":"map_chunked.039"
		}
	],
	"meshes":[
		{
			"name":"Plane.044",
			"primitives":[
				{
					"attributes":{
						"POSITION":0,
						"NORMAL":1,
						"TEXCOORD_0":2
					},
					"indices":3
				}
			]
		}
	],
	"accessors":[
		{
			"bufferView":0,
			"componentType":5126,
			"count":3094,
			"max":[
				-32,
				1.0037569999694824,
				64
			],
			"min":[
				-64,
				-10.666820526123047,
				32
			],
			"type":"VEC3"
		},
		{
			"bufferView":1,
			"componentType":5126,
			"count":3094,
			"type":"VEC3"
		},
		{
			"bufferView":2,
			"componentType":5126,
			"count":3094,
			"type":"VEC2"
		},
		{
			"bufferView":3,
			"componentType":5123,
			"count":6534,
			"type":"SCALAR"
		}
	],
	"bufferViews":[
		{
			"buffer":0,
			"byteLength":37128,
			"byteOffset":0,
			"target":34962
		},
		{
			"buffer":0,
			"byteLength":37128,
			"byteOffset":37128,
			"target":34962
		},
		{
			"buffer":0,
			"byteLength":24752,
			"byteOffset":74256,
			"target":34962
		},
		{
			"buffer":0,
			"byteLength":13068,
			"byteOffset":99008,
			"target":34963
		}
	],
	"buffers":[
		{
			"byteLength":112076,
			"uri":"map_chunked_039.bin"
		}
	]
}
