{
	"asset":{
		"generator":"Khronos glTF Blender I/O v4.4.55",
		"version":"2.0"
	},
	"scene":0,
	"scenes":[
		{
			"name":"Scene",
			"nodes":[
				0
			]
		}
	],
	"nodes":[
		{
			"mesh":0,
			"name":"map_chunked.028"
		}
	],
	"meshes":[
		{
			"name":"Plane.033",
			"primitives":[
				{
					"attributes":{
						"POSITION":0,
						"NORMAL":1,
						"TEXCOORD_0":2
					},
					"indices":3
				}
			]
		}
	],
	"accessors":[
		{
			"bufferView":0,
			"componentType":5126,
			"count":1843,
			"max":[
				-64,
				9.511484146118164,
				-96
			],
			"min":[
				-96,
				-11.545269012451172,
				-128
			],
			"type":"VEC3"
		},
		{
			"bufferView":1,
			"componentType":5126,
			"count":1843,
			"type":"VEC3"
		},
		{
			"bufferView":2,
			"componentType":5126,
			"count":1843,
			"type":"VEC2"
		},
		{
			"bufferView":3,
			"componentType":5123,
			"count":6336,
			"type":"SCALAR"
		}
	],
	"bufferViews":[
		{
			"buffer":0,
			"byteLength":22116,
			"byteOffset":0,
			"target":34962
		},
		{
			"buffer":0,
			"byteLength":22116,
			"byteOffset":22116,
			"target":34962
		},
		{
			"buffer":0,
			"byteLength":14744,
			"byteOffset":44232,
			"target":34962
		},
		{
			"buffer":0,
			"byteLength":12672,
			"byteOffset":58976,
			"target":34963
		}
	],
	"buffers":[
		{
			"byteLength":71648,
			"uri":"map_chunked_028.bin"
		}
	]
}
