{
	"asset":{
		"generator":"Khronos glTF Blender I/O v4.4.55",
		"version":"2.0"
	},
	"scene":0,
	"scenes":[
		{
			"name":"Scene",
			"nodes":[
				0
			]
		}
	],
	"nodes":[
		{
			"mesh":0,
			"name":"map_chunked.035"
		}
	],
	"meshes":[
		{
			"name":"Plane.040",
			"primitives":[
				{
					"attributes":{
						"POSITION":0,
						"NORMAL":1,
						"TEXCOORD_0":2
					},
					"indices":3
				}
			]
		}
	],
	"accessors":[
		{
			"bufferView":0,
			"componentType":5126,
			"count":2297,
			"max":[
				96,
				9.511484146118164,
				64
			],
			"min":[
				64,
				-4.894283771514893,
				32
			],
			"type":"VEC3"
		},
		{
			"bufferView":1,
			"componentType":5126,
			"count":2297,
			"type":"VEC3"
		},
		{
			"bufferView":2,
			"componentType":5126,
			"count":2297,
			"type":"VEC2"
		},
		{
			"bufferView":3,
			"componentType":5123,
			"count":6534,
			"type":"SCALAR"
		}
	],
	"bufferViews":[
		{
			"buffer":0,
			"byteLength":27564,
			"byteOffset":0,
			"target":34962
		},
		{
			"buffer":0,
			"byteLength":27564,
			"byteOffset":27564,
			"target":34962
		},
		{
			"buffer":0,
			"byteLength":18376,
			"byteOffset":55128,
			"target":34962
		},
		{
			"buffer":0,
			"byteLength":13068,
			"byteOffset":73504,
			"target":34963
		}
	],
	"buffers":[
		{
			"byteLength":86572,
			"uri":"map_chunked_035.bin"
		}
	]
}
