{
	"asset":{
		"generator":"Khronos glTF Blender I/O v4.4.55",
		"version":"2.0"
	},
	"scene":0,
	"scenes":[
		{
			"name":"Scene",
			"nodes":[
				0
			]
		}
	],
	"nodes":[
		{
			"mesh":0,
			"name":"map_chunked.003"
		}
	],
	"meshes":[
		{
			"name":"Plane.008",
			"primitives":[
				{
					"attributes":{
						"POSITION":0,
						"NORMAL":1,
						"TEXCOORD_0":2
					},
					"indices":3
				}
			]
		}
	],
	"accessors":[
		{
			"bufferView":0,
			"componentType":5126,
			"count":1253,
			"max":[
				-96,
				9.511484146118164,
				-96
			],
			"min":[
				-128,
				-2.258984088897705,
				-128
			],
			"type":"VEC3"
		},
		{
			"bufferView":1,
			"componentType":5126,
			"count":1253,
			"type":"VEC3"
		},
		{
			"bufferView":2,
			"componentType":5126,
			"count":1253,
			"type":"VEC2"
		},
		{
			"bufferView":3,
			"componentType":5123,
			"count":6336,
			"type":"SCALAR"
		}
	],
	"bufferViews":[
		{
			"buffer":0,
			"byteLength":15036,
			"byteOffset":0,
			"target":34962
		},
		{
			"buffer":0,
			"byteLength":15036,
			"byteOffset":15036,
			"target":34962
		},
		{
			"buffer":0,
			"byteLength":10024,
			"byteOffset":30072,
			"target":34962
		},
		{
			"buffer":0,
			"byteLength":12672,
			"byteOffset":40096,
			"target":34963
		}
	],
	"buffers":[
		{
			"byteLength":52768,
			"uri":"map_chunked_003.bin"
		}
	]
}
