{
	"asset":{
		"generator":"Khronos glTF Blender I/O v4.4.55",
		"version":"2.0"
	},
	"scene":0,
	"scenes":[
		{
			"name":"Scene",
			"nodes":[
				0
			]
		}
	],
	"nodes":[
		{
			"mesh":0,
			"name":"map_chunked.027"
		}
	],
	"meshes":[
		{
			"name":"Plane.032",
			"primitives":[
				{
					"attributes":{
						"POSITION":0,
						"NORMAL":1,
						"TEXCOORD_0":2
					},
					"indices":3
				}
			]
		}
	],
	"accessors":[
		{
			"bufferView":0,
			"componentType":5126,
			"count":1449,
			"max":[
				-32,
				9.511484146118164,
				-96
			],
			"min":[
				-64,
				-8.909969329833984,
				-128
			],
			"type":"VEC3"
		},
		{
			"bufferView":1,
			"componentType":5126,
			"count":1449,
			"type":"VEC3"
		},
		{
			"bufferView":2,
			"componentType":5126,
			"count":1449,
			"type":"VEC2"
		},
		{
			"bufferView":3,
			"componentType":5123,
			"count":6336,
			"type":"SCALAR"
		}
	],
	"bufferViews":[
		{
			"buffer":0,
			"byteLength":17388,
			"byteOffset":0,
			"target":34962
		},
		{
			"buffer":0,
			"byteLength":17388,
			"byteOffset":17388,
			"target":34962
		},
		{
			"buffer":0,
			"byteLength":11592,
			"byteOffset":34776,
			"target":34962
		},
		{
			"buffer":0,
			"byteLength":12672,
			"byteOffset":46368,
			"target":34963
		}
	],
	"buffers":[
		{
			"byteLength":59040,
			"uri":"map_chunked_027.bin"
		}
	]
}
