{
	"asset":{
		"generator":"Khronos glTF Blender I/O v4.4.55",
		"version":"2.0"
	},
	"scene":0,
	"scenes":[
		{
			"name":"Scene",
			"nodes":[
				0
			]
		}
	],
	"nodes":[
		{
			"mesh":0,
			"name":"map_chunked.030"
		}
	],
	"meshes":[
		{
			"name":"Plane.035",
			"primitives":[
				{
					"attributes":{
						"POSITION":0,
						"NORMAL":1,
						"TEXCOORD_0":2
					},
					"indices":3
				}
			]
		}
	],
	"accessors":[
		{
			"bufferView":0,
			"componentType":5126,
			"count":2695,
			"max":[
				64,
				9.511484146118164,
				96
			],
			"min":[
				32,
				-4.517804145812988,
				64
			],
			"type":"VEC3"
		},
		{
			"bufferView":1,
			"componentType":5126,
			"count":2695,
			"type":"VEC3"
		},
		{
			"bufferView":2,
			"componentType":5126,
			"count":2695,
			"type":"VEC2"
		},
		{
			"bufferView":3,
			"componentType":5123,
			"count":6534,
			"type":"SCALAR"
		}
	],
	"bufferViews":[
		{
			"buffer":0,
			"byteLength":32340,
			"byteOffset":0,
			"target":34962
		},
		{
			"buffer":0,
			"byteLength":32340,
			"byteOffset":32340,
			"target":34962
		},
		{
			"buffer":0,
			"byteLength":21560,
			"byteOffset":64680,
			"target":34962
		},
		{
			"buffer":0,
			"byteLength":13068,
			"byteOffset":86240,
			"target":34963
		}
	],
	"buffers":[
		{
			"byteLength":99308,
			"uri":"map_chunked_030.bin"
		}
	]
}
