{
	"asset":{
		"generator":"Khronos glTF Blender I/O v4.4.55",
		"version":"2.0"
	},
	"scene":0,
	"scenes":[
		{
			"name":"Scene",
			"nodes":[
				0
			]
		}
	],
	"nodes":[
		{
			"mesh":0,
			"name":"map_chunked.059"
		}
	],
	"meshes":[
		{
			"name":"Plane.064",
			"primitives":[
				{
					"attributes":{
						"POSITION":0,
						"NORMAL":1,
						"TEXCOORD_0":2
					},
					"indices":3
				}
			]
		}
	],
	"accessors":[
		{
			"bufferView":0,
			"componentType":5126,
			"count":3161,
			"max":[
				96,
				1.0037569999694824,
				-64
			],
			"min":[
				64,
				-5.019772052764893,
				-96
			],
			"type":"VEC3"
		},
		{
			"bufferView":1,
			"componentType":5126,
			"count":3161,
			"type":"VEC3"
		},
		{
			"bufferView":2,
			"componentType":5126,
			"count":3161,
			"type":"VEC2"
		},
		{
			"bufferView":3,
			"componentType":5123,
			"count":6534,
			"type":"SCALAR"
		}
	],
	"bufferViews":[
		{
			"buffer":0,
			"byteLength":37932,
			"byteOffset":0,
			"target":34962
		},
		{
			"buffer":0,
			"byteLength":37932,
			"byteOffset":37932,
			"target":34962
		},
		{
			"buffer":0,
			"byteLength":25288,
			"byteOffset":75864,
			"target":34962
		},
		{
			"buffer":0,
			"byteLength":13068,
			"byteOffset":101152,
			"target":34963
		}
	],
	"buffers":[
		{
			"byteLength":114220,
			"uri":"map_chunked_059.bin"
		}
	]
}
