{
	"asset":{
		"generator":"Khronos glTF Blender I/O v4.4.55",
		"version":"2.0"
	},
	"scene":0,
	"scenes":[
		{
			"name":"Scene",
			"nodes":[
				0
			]
		}
	],
	"nodes":[
		{
			"mesh":0,
			"name":"map_chunked.056"
		}
	],
	"meshes":[
		{
			"name":"Plane.061",
			"primitives":[
				{
					"attributes":{
						"POSITION":0,
						"NORMAL":1,
						"TEXCOORD_0":2
					},
					"indices":3
				}
			]
		}
	],
	"accessors":[
		{
			"bufferView":0,
			"componentType":5126,
			"count":2496,
			"max":[
				0,
				1.0037569999694824,
				-32
			],
			"min":[
				-32,
				-8.784465789794922,
				-64
			],
			"type":"VEC3"
		},
		{
			"bufferView":1,
			"componentType":5126,
			"count":2496,
			"type":"VEC3"
		},
		{
			"bufferView":2,
			"componentType":5126,
			"count":2496,
			"type":"VEC2"
		},
		{
			"bufferView":3,
			"componentType":5123,
			"count":6534,
			"type":"SCALAR"
		}
	],
	"bufferViews":[
		{
			"buffer":0,
			"byteLength":29952,
			"byteOffset":0,
			"target":34962
		},
		{
			"buffer":0,
			"byteLength":29952,
			"byteOffset":29952,
			"target":34962
		},
		{
			"buffer":0,
			"byteLength":19968,
			"byteOffset":59904,
			"target":34962
		},
		{
			"buffer":0,
			"byteLength":13068,
			"byteOffset":79872,
			"target":34963
		}
	],
	"buffers":[
		{
			"byteLength":92940,
			"uri":"map_chunked_056.bin"
		}
	]
}
