{
	"asset":{
		"generator":"Khronos glTF Blender I/O v4.4.55",
		"version":"2.0"
	},
	"scene":0,
	"scenes":[
		{
			"name":"Scene",
			"nodes":[
				0
			]
		}
	],
	"nodes":[
		{
			"mesh":0,
			"name":"map_chunked.025"
		}
	],
	"meshes":[
		{
			"name":"Plane.030",
			"primitives":[
				{
					"attributes":{
						"POSITION":0,
						"NORMAL":1,
						"TEXCOORD_0":2
					},
					"indices":3
				}
			]
		}
	],
	"accessors":[
		{
			"bufferView":0,
			"componentType":5126,
			"count":1702,
			"max":[
				32,
				9.511484146118164,
				-96
			],
			"min":[
				0,
				-5.772716999053955,
				-128
			],
			"type":"VEC3"
		},
		{
			"bufferView":1,
			"componentType":5126,
			"count":1702,
			"type":"VEC3"
		},
		{
			"bufferView":2,
			"componentType":5126,
			"count":1702,
			"type":"VEC2"
		},
		{
			"bufferView":3,
			"componentType":5123,
			"count":6336,
			"type":"SCALAR"
		}
	],
	"bufferViews":[
		{
			"buffer":0,
			"byteLength":20424,
			"byteOffset":0,
			"target":34962
		},
		{
			"buffer":0,
			"byteLength":20424,
			"byteOffset":20424,
			"target":34962
		},
		{
			"buffer":0,
			"byteLength":13616,
			"byteOffset":40848,
			"target":34962
		},
		{
			"buffer":0,
			"byteLength":12672,
			"byteOffset":54464,
			"target":34963
		}
	],
	"buffers":[
		{
			"byteLength":67136,
			"uri":"map_chunked_025.bin"
		}
	]
}
