{
	"asset":{
		"generator":"Khronos glTF Blender I/O v4.4.55",
		"version":"2.0"
	},
	"scene":0,
	"scenes":[
		{
			"name":"Scene",
			"nodes":[
				0
			]
		}
	],
	"nodes":[
		{
			"mesh":0,
			"name":"map_chunked.038"
		}
	],
	"meshes":[
		{
			"name":"Plane.043",
			"primitives":[
				{
					"attributes":{
						"POSITION":0,
						"NORMAL":1,
						"TEXCOORD_0":2
					},
					"indices":3
				}
			]
		}
	],
	"accessors":[
		{
			"bufferView":0,
			"componentType":5126,
			"count":2766,
			"max":[
				0,
				1.0037569999694824,
				64
			],
			"min":[
				-32,
				-6.274670124053955,
				32
			],
			"type":"VEC3"
		},
		{
			"bufferView":1,
			"componentType":5126,
			"count":2766,
			"type":"VEC3"
		},
		{
			"bufferView":2,
			"componentType":5126,
			"count":2766,
			"type":"VEC2"
		},
		{
			"bufferView":3,
			"componentType":5123,
			"count":6534,
			"type":"SCALAR"
		}
	],
	"bufferViews":[
		{
			"buffer":0,
			"byteLength":33192,
			"byteOffset":0,
			"target":34962
		},
		{
			"buffer":0,
			"byteLength":33192,
			"byteOffset":33192,
			"target":34962
		},
		{
			"buffer":0,
			"byteLength":22128,
			"byteOffset":66384,
			"target":34962
		},
		{
			"buffer":0,
			"byteLength":13068,
			"byteOffset":88512,
			"target":34963
		}
	],
	"buffers":[
		{
			"byteLength":101580,
			"uri":"map_chunked_038.bin"
		}
	]
}
