{
	"asset":{
		"generator":"Khronos glTF Blender I/O v4.4.55",
		"version":"2.0"
	},
	"scene":0,
	"scenes":[
		{
			"name":"Scene",
			"nodes":[
				0
			]
		}
	],
	"nodes":[
		{
			"mesh":0,
			"name":"map_chunked.052"
		}
	],
	"meshes":[
		{
			"name":"Plane.057",
			"primitives":[
				{
					"attributes":{
						"POSITION":0,
						"NORMAL":1,
						"TEXCOORD_0":2
					},
					"indices":3
				}
			]
		}
	],
	"accessors":[
		{
			"bufferView":0,
			"componentType":5126,
			"count":3108,
			"max":[
				-64,
				9.511484146118164,
				0
			],
			"min":[
				-96,
				-9.035457611083984,
				-32
			],
			"type":"VEC3"
		},
		{
			"bufferView":1,
			"componentType":5126,
			"count":3108,
			"type":"VEC3"
		},
		{
			"bufferView":2,
			"componentType":5126,
			"count":3108,
			"type":"VEC2"
		},
		{
			"bufferView":3,
			"componentType":5123,
			"count":6534,
			"type":"SCALAR"
		}
	],
	"bufferViews":[
		{
			"buffer":0,
			"byteLength":37296,
			"byteOffset":0,
			"target":34962
		},
		{
			"buffer":0,
			"byteLength":37296,
			"byteOffset":37296,
			"target":34962
		},
		{
			"buffer":0,
			"byteLength":24864,
			"byteOffset":74592,
			"target":34962
		},
		{
			"buffer":0,
			"byteLength":13068,
			"byteOffset":99456,
			"target":34963
		}
	],
	"buffers":[
		{
			"byteLength":112524,
			"uri":"map_chunked_052.bin"
		}
	]
}
